<?xml version="1.0" encoding="UTF-8"?><svg xmlns="http://www.w3.org/2000/svg" xmlns:xlink="http://www.w3.org/1999/xlink" fill-opacity="1" color-rendering="auto" color-interpolation="auto" text-rendering="auto" stroke="black" stroke-linecap="square" width="646" stroke-miterlimit="10" shape-rendering="auto" stroke-opacity="1" fill="black" stroke-dasharray="none" font-weight="normal" stroke-width="1" height="940" font-family="'Dialog'" font-style="normal" stroke-linejoin="miter" font-size="12px" stroke-dashoffset="0" image-rendering="auto">
  <!--Generated by ySVG 2.6-->
  <defs id="genericDefs"/>
  <g>
    <defs id="defs1">
      <clipPath clipPathUnits="userSpaceOnUse" id="clipPath1">
        <path d="M0 0 L646 0 L646 940 L0 940 L0 0 Z"/>
      </clipPath>
      <clipPath clipPathUnits="userSpaceOnUse" id="clipPath2">
        <path d="M57 218 L703 218 L703 1158 L57 1158 L57 218 Z"/>
      </clipPath>
    </defs>
    <g fill="white" text-rendering="geometricPrecision" shape-rendering="geometricPrecision" transform="translate(-57,-218)" stroke="white">
      <rect x="57" width="646" height="940" y="218" clip-path="url(#clipPath2)" stroke="none"/>
    </g>
    <g text-rendering="geometricPrecision" stroke-miterlimit="1.45" shape-rendering="geometricPrecision" transform="matrix(1,0,0,1,-57,-218)" stroke-linecap="butt">
      <rect fill="none" x="191.7" width="311.4" height="737.6" y="294" clip-path="url(#clipPath2)"/>
      <text x="197.7" xml:space="preserve" y="312.0645" clip-path="url(#clipPath2)" font-family="sans-serif" stroke="none">For each measurement file</text>
    </g>
    <g fill="rgb(232,238,247)" text-rendering="geometricPrecision" shape-rendering="geometricPrecision" transform="matrix(1,0,0,1,-57,-218)" stroke="rgb(232,238,247)">
      <rect x="303.5656" y="233.6" clip-path="url(#clipPath2)" width="60.8" rx="20" ry="20" height="40" stroke="none"/>
    </g>
    <g stroke-linecap="butt" transform="matrix(1,0,0,1,-57,-218)" fill="gray" text-rendering="geometricPrecision" shape-rendering="geometricPrecision" stroke="gray" stroke-miterlimit="1.45">
      <rect x="303.5656" y="233.6" clip-path="url(#clipPath2)" fill="none" width="60.8" rx="20" ry="20" height="40"/>
      <text x="321.2947" y="258.3139" clip-path="url(#clipPath2)" fill="black" font-family="sans-serif" stroke="none" xml:space="preserve">Start</text>
    </g>
    <g fill="rgb(204,255,255)" text-rendering="geometricPrecision" shape-rendering="geometricPrecision" transform="matrix(1,0,0,1,-57,-218)" stroke="rgb(204,255,255)">
      <path d="M79.75 252.625 L285.9 252.625 L278.25 282.625 L72.1 282.625 Z" stroke="none" clip-path="url(#clipPath2)"/>
    </g>
    <g stroke-linecap="butt" transform="matrix(1,0,0,1,-57,-218)" fill="teal" text-rendering="geometricPrecision" shape-rendering="geometricPrecision" stroke="teal" stroke-miterlimit="1.45">
      <path fill="none" d="M79.75 252.625 L285.9 252.625 L278.25 282.625 L72.1 282.625 Z" clip-path="url(#clipPath2)"/>
      <text x="84.2979" y="272.3389" clip-path="url(#clipPath2)" fill="black" font-family="sans-serif" stroke="none" xml:space="preserve">Paths to mzXML measurement files</text>
    </g>
    <g fill="rgb(204,255,255)" text-rendering="geometricPrecision" shape-rendering="geometricPrecision" transform="matrix(1,0,0,1,-57,-218)" stroke="rgb(204,255,255)">
      <path d="M430.2545 252.625 L594.4045 252.625 L586.7545 282.625 L422.6045 282.625 Z" stroke="none" clip-path="url(#clipPath2)"/>
    </g>
    <g stroke-linecap="butt" transform="matrix(1,0,0,1,-57,-218)" fill="teal" text-rendering="geometricPrecision" shape-rendering="geometricPrecision" stroke="teal" stroke-miterlimit="1.45">
      <path fill="none" d="M430.2545 252.625 L594.4045 252.625 L586.7545 282.625 L422.6045 282.625 Z" clip-path="url(#clipPath2)"/>
      <text x="431.4771" y="272.3389" clip-path="url(#clipPath2)" fill="black" font-family="sans-serif" stroke="none" xml:space="preserve">Path to spectral library (CSL)</text>
    </g>
    <g fill="rgb(255,153,0)" text-rendering="geometricPrecision" shape-rendering="geometricPrecision" transform="matrix(1,0,0,1,-57,-218)" stroke="rgb(255,153,0)">
      <rect x="224.3" width="246.2" height="30" y="319.4" clip-path="url(#clipPath2)" stroke="none"/>
    </g>
    <g stroke-linecap="butt" transform="matrix(1,0,0,1,-57,-218)" fill="rgb(153,51,0)" text-rendering="geometricPrecision" shape-rendering="geometricPrecision" stroke="rgb(153,51,0)" stroke-miterlimit="1.45">
      <rect fill="none" x="224.3" width="246.2" height="30" y="319.4" clip-path="url(#clipPath2)"/>
      <text x="227.6871" y="339.1139" clip-path="url(#clipPath2)" fill="black" font-family="sans-serif" stroke="none" xml:space="preserve">Load spectral library into memory (as tibbles)</text>
    </g>
    <g fill="rgb(255,153,0)" text-rendering="geometricPrecision" shape-rendering="geometricPrecision" transform="matrix(1,0,0,1,-57,-218)" stroke="rgb(255,153,0)">
      <rect x="240.5" width="213.8" height="42" y="379.4" clip-path="url(#clipPath2)" stroke="none"/>
    </g>
    <g stroke-linecap="butt" transform="matrix(1,0,0,1,-57,-218)" fill="rgb(153,51,0)" text-rendering="geometricPrecision" shape-rendering="geometricPrecision" stroke="rgb(153,51,0)" stroke-miterlimit="1.45">
      <rect fill="none" x="240.5" width="213.8" height="42" y="379.4" clip-path="url(#clipPath2)"/>
      <text x="251.69" y="397.7633" clip-path="url(#clipPath2)" fill="black" font-family="sans-serif" stroke="none" xml:space="preserve">Load measurement file into memory</text>
      <text x="309.0504" y="412.4644" clip-path="url(#clipPath2)" fill="black" font-family="sans-serif" stroke="none" xml:space="preserve">(if not already)</text>
      <rect x="513.909" y="350.4" clip-path="url(#clipPath2)" fill="none" width="131.622" stroke-dasharray="6,2" height="30" stroke="rgb(153,153,153)"/>
      <text x="522.1106" y="369.774" clip-path="url(#clipPath2)" fill="black" font-family="'Arial monospaced for SAP'" stroke="none" xml:space="preserve">dplyr::collect()</text>
      <rect x="513.909" y="385.4" clip-path="url(#clipPath2)" fill="none" width="131.622" stroke-dasharray="6,2" height="30" stroke="rgb(153,153,153)"/>
      <text x="525.7112" y="404.774" clip-path="url(#clipPath2)" fill="black" font-family="'Arial monospaced for SAP'" stroke="none" xml:space="preserve">xcms::xcmsRaw()</text>
      <rect x="213.8" y="429.6" clip-path="url(#clipPath2)" fill="none" width="279.2" height="537.6" stroke="black"/>
      <text x="219.8" y="447.6645" clip-path="url(#clipPath2)" fill="black" font-family="sans-serif" stroke="none" xml:space="preserve">For each compound</text>
    </g>
    <g fill="rgb(255,153,0)" text-rendering="geometricPrecision" shape-rendering="geometricPrecision" transform="matrix(1,0,0,1,-57,-218)" stroke="rgb(255,153,0)">
      <rect x="239.9" width="215" height="42" y="452.85" clip-path="url(#clipPath2)" stroke="none"/>
    </g>
    <g stroke-linecap="butt" transform="matrix(1,0,0,1,-57,-218)" fill="rgb(153,51,0)" text-rendering="geometricPrecision" shape-rendering="geometricPrecision" stroke="rgb(153,51,0)" stroke-miterlimit="1.45">
      <rect fill="none" x="239.9" width="215" height="42" y="452.85" clip-path="url(#clipPath2)"/>
      <text x="254.0279" y="471.2133" clip-path="url(#clipPath2)" fill="black" font-family="sans-serif" stroke="none" xml:space="preserve">Look for molecular ion m/z and RT </text>
      <text x="270.7008" y="485.9145" clip-path="url(#clipPath2)" fill="black" font-family="sans-serif" stroke="none" xml:space="preserve">in all MS2 experiments of file</text>
    </g>
    <g fill="rgb(255,153,0)" text-rendering="geometricPrecision" shape-rendering="geometricPrecision" transform="matrix(1,0,0,1,-57,-218)" stroke="rgb(255,153,0)">
      <rect x="223.3" width="262.2" height="30" y="578.55" clip-path="url(#clipPath2)" stroke="none"/>
    </g>
    <g stroke-linecap="butt" transform="matrix(1,0,0,1,-57,-218)" fill="rgb(153,51,0)" text-rendering="geometricPrecision" shape-rendering="geometricPrecision" stroke="rgb(153,51,0)" stroke-miterlimit="1.45">
      <rect fill="none" x="223.3" width="262.2" height="30" y="578.55" clip-path="url(#clipPath2)"/>
      <text x="279.7018" y="598.2639" clip-path="url(#clipPath2)" fill="black" font-family="sans-serif" stroke="none" xml:space="preserve">Get available MS² from data</text>
    </g>
    <g fill="rgb(153,204,255)" text-rendering="geometricPrecision" shape-rendering="geometricPrecision" transform="matrix(1,0,0,1,-57,-218)" stroke="rgb(153,204,255)">
      <path d="M347.4 515.6509 L380.2941 536.7 L347.4 557.7491 L314.5059 536.7 Z" stroke="none" clip-path="url(#clipPath2)"/>
    </g>
    <g text-rendering="geometricPrecision" stroke-miterlimit="1.45" shape-rendering="geometricPrecision" transform="matrix(1,0,0,1,-57,-218)" stroke-linecap="butt">
      <path fill="none" d="M347.4 515.6509 L380.2941 536.7 L347.4 557.7491 L314.5059 536.7 Z" clip-path="url(#clipPath2)"/>
      <text x="334.7262" xml:space="preserve" y="541.4139" clip-path="url(#clipPath2)" font-family="sans-serif" stroke="none">hits?</text>
    </g>
    <g fill="rgb(255,153,0)" text-rendering="geometricPrecision" shape-rendering="geometricPrecision" transform="matrix(1,0,0,1,-57,-218)" stroke="rgb(255,153,0)">
      <rect x="223.3" width="262.2" height="30" y="629.3509" clip-path="url(#clipPath2)" stroke="none"/>
    </g>
    <g stroke-linecap="butt" transform="matrix(1,0,0,1,-57,-218)" fill="rgb(153,51,0)" text-rendering="geometricPrecision" shape-rendering="geometricPrecision" stroke="rgb(153,51,0)" stroke-miterlimit="1.45">
      <rect fill="none" x="223.3" width="262.2" height="30" y="629.3509" clip-path="url(#clipPath2)"/>
      <text x="254.3687" y="649.0648" clip-path="url(#clipPath2)" fill="black" font-family="sans-serif" stroke="none" xml:space="preserve">Get all MS² for compound from library</text>
    </g>
    <g fill="rgb(255,153,0)" text-rendering="geometricPrecision" shape-rendering="geometricPrecision" transform="matrix(1,0,0,1,-57,-218)" stroke="rgb(255,153,0)">
      <rect x="238.5" width="231.8" height="30" y="680.1517" clip-path="url(#clipPath2)" stroke="none"/>
    </g>
    <g stroke-linecap="butt" transform="matrix(1,0,0,1,-57,-218)" fill="rgb(153,51,0)" text-rendering="geometricPrecision" shape-rendering="geometricPrecision" stroke="rgb(153,51,0)" stroke-miterlimit="1.45">
      <rect fill="none" x="238.5" width="231.8" height="30" y="680.1517" clip-path="url(#clipPath2)"/>
      <text x="253.0387" y="692.515" clip-path="url(#clipPath2)" fill="black" font-family="sans-serif" stroke="none" xml:space="preserve">Compare all data MS² with library MS²</text>
      <text x="282.025" y="707.2162" clip-path="url(#clipPath2)" fill="black" font-family="sans-serif" stroke="none" xml:space="preserve">using dot product algorithm</text>
    </g>
    <g fill="rgb(255,153,0)" text-rendering="geometricPrecision" shape-rendering="geometricPrecision" transform="matrix(1,0,0,1,-57,-218)" stroke="rgb(255,153,0)">
      <rect x="281.3296" width="150.5882" height="30" y="804.8754" clip-path="url(#clipPath2)" stroke="none"/>
    </g>
    <g stroke-linecap="butt" transform="matrix(1,0,0,1,-57,-218)" fill="rgb(153,51,0)" text-rendering="geometricPrecision" shape-rendering="geometricPrecision" stroke="rgb(153,51,0)" stroke-miterlimit="1.45">
      <rect fill="none" x="281.3296" width="150.5882" height="30" y="804.8754" clip-path="url(#clipPath2)"/>
      <text x="303.608" y="824.5893" clip-path="url(#clipPath2)" fill="black" font-family="sans-serif" stroke="none" xml:space="preserve">Search MS1 for m/z</text>
    </g>
    <g fill="rgb(153,204,255)" text-rendering="geometricPrecision" shape-rendering="geometricPrecision" transform="matrix(1,0,0,1,-57,-218)" stroke="rgb(153,204,255)">
      <path d="M356.6237 730.9526 L425.5355 757.6017 L356.6237 784.2509 L287.7118 757.6017 Z" stroke="none" clip-path="url(#clipPath2)"/>
    </g>
    <g text-rendering="geometricPrecision" stroke-miterlimit="1.45" shape-rendering="geometricPrecision" transform="matrix(1,0,0,1,-57,-218)" stroke-linecap="butt">
      <path fill="none" d="M356.6237 730.9526 L425.5355 757.6017 L356.6237 784.2509 L287.7118 757.6017 Z" clip-path="url(#clipPath2)"/>
      <text x="318.2682" xml:space="preserve" y="754.965" clip-path="url(#clipPath2)" font-family="sans-serif" stroke="none">Scores above </text>
      <text x="328.6041" xml:space="preserve" y="769.6662" clip-path="url(#clipPath2)" font-family="sans-serif" stroke="none">threshold?</text>
    </g>
    <g fill="rgb(255,153,0)" text-rendering="geometricPrecision" shape-rendering="geometricPrecision" transform="matrix(1,0,0,1,-57,-218)" stroke="rgb(255,153,0)">
      <rect x="240.5296" width="232.1882" height="42" y="855.5" clip-path="url(#clipPath2)" stroke="none"/>
    </g>
    <g stroke-linecap="butt" transform="matrix(1,0,0,1,-57,-218)" fill="rgb(153,51,0)" text-rendering="geometricPrecision" shape-rendering="geometricPrecision" stroke="rgb(153,51,0)" stroke-miterlimit="1.45">
      <rect fill="none" x="240.5296" width="232.1882" height="42" y="855.5" clip-path="url(#clipPath2)"/>
      <text x="250.5778" y="873.8633" clip-path="url(#clipPath2)" fill="black" font-family="sans-serif" stroke="none" xml:space="preserve">Collect possible peaks, name them A-Z </text>
      <text x="273.2389" y="888.5645" clip-path="url(#clipPath2)" fill="black" font-family="sans-serif" stroke="none" xml:space="preserve">according to the retention order</text>
    </g>
    <g fill="rgb(255,153,0)" text-rendering="geometricPrecision" shape-rendering="geometricPrecision" transform="matrix(1,0,0,1,-57,-218)" stroke="rgb(255,153,0)">
      <rect x="251.1296" width="210.9882" height="30" y="916.4" clip-path="url(#clipPath2)" stroke="none"/>
    </g>
    <g stroke-linecap="butt" transform="matrix(1,0,0,1,-57,-218)" fill="rgb(153,51,0)" text-rendering="geometricPrecision" shape-rendering="geometricPrecision" stroke="rgb(153,51,0)" stroke-miterlimit="1.45">
      <rect fill="none" x="251.1296" width="210.9882" height="30" y="916.4" clip-path="url(#clipPath2)"/>
      <text x="263.5768" y="936.1139" clip-path="url(#clipPath2)" fill="black" font-family="sans-serif" stroke="none" xml:space="preserve">Add compound information from lib</text>
    </g>
    <g fill="rgb(255,255,153)" text-rendering="geometricPrecision" shape-rendering="geometricPrecision" transform="matrix(1,0,0,1,-57,-218)" stroke="rgb(255,255,153)">
      <rect x="528.3" width="158.8" height="42" y="853" clip-path="url(#clipPath2)" stroke="none"/>
    </g>
    <g text-rendering="geometricPrecision" stroke-miterlimit="1.45" shape-rendering="geometricPrecision" transform="matrix(1,0,0,1,-57,-218)" stroke-linecap="butt">
      <rect fill="none" x="528.3" width="158.8" height="42" y="853" clip-path="url(#clipPath2)"/>
      <text x="536.4969" xml:space="preserve" y="878.7139" clip-path="url(#clipPath2)" font-family="sans-serif" stroke="none">If gap between RT &lt; rt_res</text>
    </g>
    <g fill="rgb(255,153,0)" text-rendering="geometricPrecision" shape-rendering="geometricPrecision" transform="matrix(1,0,0,1,-57,-218)" stroke="rgb(255,153,0)">
      <rect x="266.1296" width="180.9882" height="30" y="983.4" clip-path="url(#clipPath2)" stroke="none"/>
    </g>
    <g stroke-linecap="butt" transform="matrix(1,0,0,1,-57,-218)" fill="rgb(153,51,0)" text-rendering="geometricPrecision" shape-rendering="geometricPrecision" stroke="rgb(153,51,0)" stroke-miterlimit="1.45">
      <rect fill="none" x="266.1296" width="180.9882" height="30" y="983.4" clip-path="url(#clipPath2)"/>
      <text x="276.9127" y="1003.1139" clip-path="url(#clipPath2)" fill="black" font-family="sans-serif" stroke="none" xml:space="preserve">Collect all compounds in table</text>
    </g>
    <g fill="rgb(255,153,0)" text-rendering="geometricPrecision" shape-rendering="geometricPrecision" transform="matrix(1,0,0,1,-57,-218)" stroke="rgb(255,153,0)">
      <rect x="251.021" width="211.2054" height="30" y="1052" clip-path="url(#clipPath2)" stroke="none"/>
    </g>
    <g stroke-linecap="butt" transform="matrix(1,0,0,1,-57,-218)" fill="rgb(153,51,0)" text-rendering="geometricPrecision" shape-rendering="geometricPrecision" stroke="rgb(153,51,0)" stroke-miterlimit="1.45">
      <rect fill="none" x="251.021" width="211.2054" height="30" y="1052" clip-path="url(#clipPath2)"/>
      <text x="258.9127" y="1071.7139" clip-path="url(#clipPath2)" fill="black" font-family="sans-serif" stroke="none" xml:space="preserve">Collect all measurement files in table</text>
    </g>
    <g fill="rgb(232,238,247)" text-rendering="geometricPrecision" shape-rendering="geometricPrecision" transform="matrix(1,0,0,1,-57,-218)" stroke="rgb(232,238,247)">
      <rect x="295.2237" y="1102.4" clip-path="url(#clipPath2)" width="122.8" rx="20" ry="20" height="40" stroke="none"/>
    </g>
    <g stroke-linecap="butt" transform="matrix(1,0,0,1,-57,-218)" fill="gray" text-rendering="geometricPrecision" shape-rendering="geometricPrecision" stroke="gray" stroke-miterlimit="1.45">
      <rect x="295.2237" y="1102.4" clip-path="url(#clipPath2)" fill="none" width="122.8" rx="20" ry="20" height="40"/>
      <text x="310.6012" y="1127.1139" clip-path="url(#clipPath2)" fill="black" font-family="sans-serif" stroke="none" xml:space="preserve">return data.frame</text>
    </g>
    <g text-rendering="geometricPrecision" stroke-miterlimit="1.45" shape-rendering="geometricPrecision" transform="matrix(1,0,0,1,-57,-218)" stroke-linecap="butt">
      <path fill="none" d="M333.9656 273.5887 L333.9656 285.9716" clip-path="url(#clipPath2)"/>
      <path d="M333.9656 293.9716 L338.9656 281.9716 L333.9656 284.9716 L328.9656 281.9716 Z" clip-path="url(#clipPath2)" stroke="none"/>
      <path fill="none" stroke-dasharray="6,2" d="M508.5045 282.6559 L508.5045 334.4 L470.5 334.4" clip-path="url(#clipPath2)" stroke="rgb(153,153,153)"/>
      <path fill="none" stroke-dasharray="6,2" d="M179 282.6335 L179 400.4 L240.5 400.4" clip-path="url(#clipPath2)" stroke="rgb(153,153,153)"/>
      <path fill="none" d="M347.4 349.4 L347.4 371.4" clip-path="url(#clipPath2)"/>
      <path d="M347.4 379.4 L352.4 367.4 L347.4 370.4 L342.4 367.4 Z" clip-path="url(#clipPath2)" stroke="none"/>
      <path fill="none" stroke-dasharray="6,2" d="M579.72 350.4 L579.72 340.144 L470.4907 340.144" clip-path="url(#clipPath2)" stroke="rgb(153,153,153)"/>
      <path fill="none" stroke-dasharray="6,2" d="M513.909 400.4 L454.3 400.4" clip-path="url(#clipPath2)" stroke="rgb(153,153,153)"/>
      <path fill="none" d="M347.4 494.85 L347.4 507.6524" clip-path="url(#clipPath2)"/>
      <path d="M347.4 515.6524 L352.4 503.6524 L347.4 506.6524 L342.4 503.6524 Z" clip-path="url(#clipPath2)" stroke="none"/>
      <path fill="none" d="M347.4 557.7689 L347.4 570.5597" clip-path="url(#clipPath2)"/>
      <path d="M347.4 578.5597 L352.4 566.5597 L347.4 569.5597 L342.4 566.5597 Z" clip-path="url(#clipPath2)" stroke="none"/>
      <path fill="none" d="M354.4 608.55 L354.4 621.3509" clip-path="url(#clipPath2)"/>
      <path d="M354.4 629.3509 L359.4 617.3509 L354.4 620.3509 L349.4 617.3509 Z" clip-path="url(#clipPath2)" stroke="none"/>
      <path fill="none" d="M354.4 659.3509 L354.4 672.1517" clip-path="url(#clipPath2)"/>
      <path d="M354.4 680.1517 L359.4 668.1517 L354.4 671.1517 L349.4 668.1517 Z" clip-path="url(#clipPath2)" stroke="none"/>
      <path fill="none" d="M354.4 710.1517 L354.4 726.3767 L356.6237 726.3767 L356.6237 730.9812" clip-path="url(#clipPath2)"/>
      <path d="M356.6237 730.9812 L361.6237 718.9812 L356.6237 721.9812 L351.6237 718.9812 Z" clip-path="url(#clipPath2)" stroke="none"/>
      <path fill="none" d="M356.6237 784.2687 L356.6237 796.8754" clip-path="url(#clipPath2)"/>
      <path d="M356.6237 804.8754 L361.6237 792.8754 L356.6237 795.8754 L351.6237 792.8754 Z" clip-path="url(#clipPath2)" stroke="none"/>
      <path fill="none" d="M356.6237 834.8754 L356.6237 847.5" clip-path="url(#clipPath2)"/>
      <path d="M356.6237 855.5 L361.6237 843.5 L356.6237 846.5 L351.6237 843.5 Z" clip-path="url(#clipPath2)" stroke="none"/>
      <path fill="none" d="M356.6237 897.5 L356.6237 908.4" clip-path="url(#clipPath2)"/>
      <path d="M356.6237 916.4 L361.6237 904.4 L356.6237 907.4 L351.6237 904.4 Z" clip-path="url(#clipPath2)" stroke="none"/>
      <path fill="none" stroke-dasharray="6,2" d="M528.3 874 L472.6956 874" clip-path="url(#clipPath2)" stroke="rgb(153,153,153)"/>
      <path fill="none" d="M356.6237 946.4 L356.6237 975.4" clip-path="url(#clipPath2)"/>
      <path d="M356.6237 983.4 L361.6237 971.4 L356.6237 974.4 L351.6237 971.4 Z" clip-path="url(#clipPath2)" stroke="none"/>
      <path fill="none" d="M356.6237 1013.4 L356.6237 1044" clip-path="url(#clipPath2)"/>
      <path d="M356.6237 1052 L361.6237 1040 L356.6237 1043 L351.6237 1040 Z" clip-path="url(#clipPath2)" stroke="none"/>
      <path fill="none" d="M356.6237 1082 L356.6237 1094.3972" clip-path="url(#clipPath2)"/>
      <path d="M356.6237 1102.3972 L361.6237 1090.3972 L356.6237 1093.3972 L351.6237 1090.3972 Z" clip-path="url(#clipPath2)" stroke="none"/>
    </g>
  </g>
</svg>
